<svg viewBox="0 0 4310 3290" fill="none" xmlns="http://www.w3.org/2000/svg">
<path d="M2026.04 7.40881C2023.34 11.7861 1958.02 136.372 1880.57 284.528C1803.13 432.685 1738.48 555.924 1736.46 557.944C1734.1 561.311 1795.72 562.321 2042.87 562.321H2352.32L2516.3 283.181C2606.54 129.638 2680.28 3.03149 2680.28 2.0213C2680.28 1.01117 2534.14 0.000976562 2355.35 0.000976562H2030.41L2026.04 7.40881Z" fill="black"/>
<path d="M2860.43 275.1C2781.3 426.624 2714.96 553.23 2713.28 556.26C2710.59 561.985 2726.08 562.321 3014.31 562.321H3318.36L3481.67 284.192C3571.58 130.985 3645.65 4.71509 3645.99 3.03149C3646.66 1.3479 3508.61 0.000976562 3325.77 0.000976562H3004.54L2860.43 275.1Z" fill="black"/>
<path d="M3936.58 14.1432C3927.83 34.683 3694.15 541.781 3688.42 552.893L3683.37 562.321H3983.39H4283.07V281.161V0.000976562H4113.02H3942.64L3936.58 14.1432Z" fill="black"/>
<path d="M-0.00012207 286.212V562.321H698.018H1395.7L1545.54 288.906C1628.04 138.729 1696.05 14.4797 1696.39 13.1328C1697.06 11.4492 1315.9 10.1024 848.868 10.1024H-0.00012207V286.212Z" fill="black"/>
<path d="M15.4889 988.944C14.4788 1016.55 12.4584 1485.6 11.4483 2032.1L9.42798 3025.42L16.1624 3054.71C29.2944 3109.26 53.5381 3151.69 93.9444 3192.43C135.697 3234.52 183.512 3261.8 245.805 3278.97L277.793 3288.06L2143.21 3289.07C3516.35 3289.74 4015.71 3289.07 4035.57 3286.38C4169.92 3267.18 4278.35 3171.56 4303.6 3049.33C4309.66 3019.7 4310 2981.65 4310 1978.9V939.446H2163.75H17.8459L15.4889 988.944ZM1848.59 1644.2C1874.85 1652.62 2538.19 1957.01 2597.78 1987.65C2697.45 2039.17 2723.04 2119.31 2661.42 2185.31C2629.1 2219.99 2651.66 2208.88 1981.59 2516.97C1851.95 2576.57 1832.42 2582.97 1777.87 2582.97C1727.7 2582.63 1695.04 2570.51 1663.05 2539.87C1641.84 2519.67 1623.66 2486.67 1615.91 2454.68C1612.21 2439.87 1611.2 2372.86 1611.2 2109.54C1611.2 1751.95 1610.53 1766.76 1631.4 1722.32C1656.99 1668.44 1699.08 1638.81 1757.67 1633.76C1790 1630.73 1816.93 1633.76 1848.59 1644.2Z" fill="black"/>
</svg>
