<svg  viewBox="0 0 9549 3290" fill="none" xmlns="http://www.w3.org/2000/svg">
<path d="M5351.4 1344L5142.6 950.4L5368.2 818.4L5670.6 1344H5351.4ZM4828.2 1344V504H5111.4V1344H4828.2ZM5029.8 1040.4V817.2H5347.8V1040.4H5029.8ZM5395.8 954L5135.4 927.6L5376.6 504H5671.8L5395.8 954ZM5730.46 1344V687.6H6000.46V984L6227.26 687.6H6476.86V1344H6206.86V1046.4L5981.26 1344H5730.46ZM6603.51 1344V687.6H6873.51V918H7058.31V687.6H7328.31V1344H7058.31V1130.4H6873.51V1344H6603.51ZM7793.86 1356C7719.46 1356 7653.46 1341.6 7595.86 1312.8C7539.06 1283.2 7494.26 1242.8 7461.46 1191.6C7428.66 1140.4 7412.26 1081.6 7412.26 1015.2C7412.26 948.8 7428.66 890 7461.46 838.8C7494.26 787.6 7539.06 747.6 7595.86 718.8C7653.46 690 7719.46 675.6 7793.86 675.6C7868.26 675.6 7934.26 690 7991.86 718.8C8049.46 747.6 8094.26 787.6 8126.26 838.8C8159.06 890 8175.46 948.8 8175.46 1015.2C8175.46 1081.6 8159.06 1140.4 8126.26 1191.6C8094.26 1242.8 8049.46 1283.2 7991.86 1312.8C7934.26 1341.6 7868.26 1356 7793.86 1356ZM7793.86 1144.8C7813.86 1144.8 7831.86 1140 7847.86 1130.4C7863.86 1120.8 7876.66 1106.4 7886.26 1087.2C7895.86 1067.2 7900.66 1043.2 7900.66 1015.2C7900.66 986.4 7895.86 962.8 7886.26 944.4C7876.66 925.2 7863.86 910.8 7847.86 901.2C7831.86 891.6 7813.86 886.8 7793.86 886.8C7773.86 886.8 7755.86 891.6 7739.86 901.2C7723.86 910.8 7711.06 925.2 7701.46 944.4C7691.86 962.8 7687.06 986.4 7687.06 1015.2C7687.06 1043.2 7691.86 1067.2 7701.46 1087.2C7711.06 1106.4 7723.86 1120.8 7739.86 1130.4C7755.86 1140 7773.86 1144.8 7793.86 1144.8ZM5257.8 2826.2C5190.6 2826.2 5128.2 2815.8 5070.6 2795C5013.8 2773.4 4964.2 2743 4921.8 2703.8C4880.2 2664.6 4847.8 2618.2 4824.6 2564.6C4801.4 2511 4789.8 2451.8 4789.8 2387C4789.8 2322.2 4801.4 2263 4824.6 2209.4C4847.8 2155.8 4880.2 2109.4 4921.8 2070.2C4964.2 2031 5013.8 2001 5070.6 1980.2C5128.2 1958.6 5190.6 1947.8 5257.8 1947.8C5340.2 1947.8 5413 1962.2 5476.2 1991C5540.2 2019.8 5593 2061.4 5634.6 2115.8L5455.8 2275.4C5431 2244.2 5403.4 2220.2 5373 2203.4C5343.4 2185.8 5309.8 2177 5272.2 2177C5242.6 2177 5215.8 2181.8 5191.8 2191.4C5167.8 2201 5147 2215 5129.4 2233.4C5112.6 2251.8 5099.4 2274.2 5089.8 2300.6C5080.2 2326.2 5075.4 2355 5075.4 2387C5075.4 2419 5080.2 2448.2 5089.8 2474.6C5099.4 2500.2 5112.6 2522.2 5129.4 2540.6C5147 2559 5167.8 2573 5191.8 2582.6C5215.8 2592.2 5242.6 2597 5272.2 2597C5309.8 2597 5343.4 2588.6 5373 2571.8C5403.4 2554.2 5431 2529.8 5455.8 2498.6L5634.6 2658.2C5593 2711.8 5540.2 2753.4 5476.2 2783C5413 2811.8 5340.2 2826.2 5257.8 2826.2ZM5709.37 2807V2150.6H6077.77C6165.77 2150.6 6234.17 2165.8 6282.97 2196.2C6331.77 2225.8 6356.17 2267.8 6356.17 2322.2C6356.17 2375 6333.77 2417.4 6288.97 2449.4C6244.17 2480.6 6183.77 2496.2 6107.77 2496.2L6128.17 2441C6208.97 2441 6270.17 2455.8 6311.77 2485.4C6354.17 2515 6375.37 2558.2 6375.37 2615C6375.37 2673.4 6352.17 2720.2 6305.77 2755.4C6260.17 2789.8 6190.57 2807 6096.97 2807H5709.37ZM5946.97 2639H6072.97C6092.97 2639 6107.77 2634.6 6117.37 2625.8C6126.97 2617 6131.77 2605 6131.77 2589.8C6131.77 2573.8 6126.97 2562.2 6117.37 2555C6107.77 2547 6092.97 2543 6072.97 2543H5946.97V2639ZM5946.97 2409.8H6053.77C6074.57 2409.8 6089.37 2405.8 6098.17 2397.8C6107.77 2389.8 6112.57 2378.2 6112.57 2363C6112.57 2347 6107.77 2335.8 6098.17 2329.4C6089.37 2322.2 6074.57 2318.6 6053.77 2318.6H5946.97V2409.8ZM6846.85 2807V2690.6L6827.65 2659.4V2438.6C6827.65 2406.6 6817.65 2382.2 6797.65 2365.4C6778.45 2348.6 6746.85 2340.2 6702.85 2340.2C6673.25 2340.2 6643.25 2345 6612.85 2354.6C6582.45 2363.4 6556.45 2375.8 6534.85 2391.8L6448.45 2213C6486.85 2189 6532.85 2170.6 6586.45 2157.8C6640.05 2145 6692.45 2138.6 6743.65 2138.6C6856.45 2138.6 6943.65 2163.8 7005.25 2214.2C7067.65 2264.6 7098.85 2344.6 7098.85 2454.2V2807H6846.85ZM6660.85 2819C6607.25 2819 6562.45 2809.8 6526.45 2791.4C6490.45 2773 6463.25 2748.6 6444.85 2718.2C6426.45 2687 6417.25 2652.6 6417.25 2615C6417.25 2572.6 6428.05 2536.6 6449.65 2507C6471.25 2477.4 6504.05 2455 6548.05 2439.8C6592.85 2424.6 6649.25 2417 6717.25 2417H6854.05V2547.8H6760.45C6731.65 2547.8 6710.45 2552.6 6696.85 2562.2C6684.05 2571 6677.65 2584.6 6677.65 2603C6677.65 2618.2 6683.25 2631 6694.45 2641.4C6706.45 2651 6722.45 2655.8 6742.45 2655.8C6760.85 2655.8 6777.65 2651 6792.85 2641.4C6808.85 2631 6820.45 2615 6827.65 2593.4L6862.45 2673.8C6852.05 2722.6 6830.05 2759 6796.45 2783C6762.85 2807 6717.65 2819 6660.85 2819ZM7158.97 2807L7169.77 2587.4C7174.57 2588.2 7179.37 2589 7184.17 2589.8C7188.97 2589.8 7193.37 2589.8 7197.37 2589.8C7214.97 2589.8 7228.97 2586.6 7239.37 2580.2C7249.77 2573 7257.77 2563 7263.37 2550.2C7269.77 2536.6 7274.17 2520.6 7276.57 2502.2C7278.97 2483 7280.57 2461 7281.37 2436.2L7290.97 2150.6H7917.37V2807H7646.17V2305.4L7704.97 2361.8H7469.77L7524.97 2301.8L7518.97 2447C7516.57 2506.2 7511.37 2559.4 7503.37 2606.6C7495.37 2653 7482.57 2692.6 7464.97 2725.4C7448.17 2757.4 7424.97 2782.2 7395.37 2799.8C7366.57 2816.6 7329.77 2825 7284.97 2825C7267.37 2825 7247.77 2823.4 7226.17 2820.2C7205.37 2817 7182.97 2812.6 7158.97 2807ZM8498.51 2807L8318.51 2505.8L8536.91 2378.6L8817.71 2807H8498.51ZM8044.91 2807V2150.6H8316.11V2807H8044.91ZM8236.91 2588.6V2381H8481.71V2588.6H8236.91ZM8564.51 2508.2L8310.11 2484.2L8518.91 2150.6H8804.51L8564.51 2508.2ZM9249.2 2807V2690.6L9230 2659.4V2438.6C9230 2406.6 9220 2382.2 9200 2365.4C9180.8 2348.6 9149.2 2340.2 9105.2 2340.2C9075.6 2340.2 9045.6 2345 9015.2 2354.6C8984.8 2363.4 8958.8 2375.8 8937.2 2391.8L8850.8 2213C8889.2 2189 8935.2 2170.6 8988.8 2157.8C9042.4 2145 9094.8 2138.6 9146 2138.6C9258.8 2138.6 9346 2163.8 9407.6 2214.2C9470 2264.6 9501.2 2344.6 9501.2 2454.2V2807H9249.2ZM9063.2 2819C9009.6 2819 8964.8 2809.8 8928.8 2791.4C8892.8 2773 8865.6 2748.6 8847.2 2718.2C8828.8 2687 8819.6 2652.6 8819.6 2615C8819.6 2572.6 8830.4 2536.6 8852 2507C8873.6 2477.4 8906.4 2455 8950.4 2439.8C8995.2 2424.6 9051.6 2417 9119.6 2417H9256.4V2547.8H9162.8C9134 2547.8 9112.8 2552.6 9099.2 2562.2C9086.4 2571 9080 2584.6 9080 2603C9080 2618.2 9085.6 2631 9096.8 2641.4C9108.8 2651 9124.8 2655.8 9144.8 2655.8C9163.2 2655.8 9180 2651 9195.2 2641.4C9211.2 2631 9222.8 2615 9230 2593.4L9264.8 2673.8C9254.4 2722.6 9232.4 2759 9198.8 2783C9165.2 2807 9120 2819 9063.2 2819Z" fill="white"/>
<g clip-path="url(#clip0_1_8)">
<path d="M2026.04 7.40881C2023.34 11.7862 1958.02 136.372 1880.57 284.528C1803.13 432.685 1738.48 555.924 1736.46 557.944C1734.1 561.311 1795.72 562.321 2042.87 562.321H2352.32L2516.3 283.181C2606.54 129.638 2680.28 3.03147 2680.28 2.02131C2680.28 1.01115 2534.14 0.00099647 2355.35 0.00099647H2030.41L2026.04 7.40881Z" fill="white"/>
<path d="M2860.43 275.1C2781.3 426.624 2714.96 553.23 2713.28 556.26C2710.59 561.985 2726.08 562.321 3014.31 562.321H3318.36L3481.67 284.192C3571.58 130.985 3645.65 4.71506 3645.99 3.03147C3646.66 1.34787 3508.61 0.00099647 3325.77 0.00099647H3004.54L2860.43 275.1Z" fill="white"/>
<path d="M3936.58 14.1432C3927.83 34.683 3694.15 541.781 3688.42 552.893L3683.37 562.321H3983.39H4283.07V281.161V0.00099647H4113.02H3942.64L3936.58 14.1432Z" fill="white"/>
<path d="M-0.00012207 286.212V562.321H698.018H1395.7L1545.54 288.906C1628.03 138.729 1696.05 14.4797 1696.39 13.1328C1697.06 11.4492 1315.9 10.1024 848.868 10.1024H-0.00012207V286.212Z" fill="white"/>
<path d="M15.4889 988.944C14.4788 1016.55 12.4584 1485.6 11.4483 2032.1L9.42798 3025.42L16.1624 3054.71C29.2944 3109.26 53.5381 3151.69 93.9444 3192.43C135.697 3234.52 183.512 3261.8 245.805 3278.97L277.793 3288.06L2143.21 3289.07C3516.35 3289.74 4015.71 3289.07 4035.57 3286.38C4169.92 3267.18 4278.35 3171.56 4303.6 3049.33C4309.66 3019.7 4310 2981.65 4310 1978.9V939.446H2163.75H17.8459L15.4889 988.944ZM1848.59 1644.2C1874.85 1652.62 2538.19 1957.01 2597.78 1987.65C2697.45 2039.17 2723.04 2119.31 2661.42 2185.31C2629.1 2219.99 2651.66 2208.88 1981.59 2516.97C1851.95 2576.57 1832.42 2582.97 1777.87 2582.97C1727.7 2582.63 1695.04 2570.51 1663.05 2539.87C1641.84 2519.67 1623.66 2486.67 1615.91 2454.68C1612.21 2439.87 1611.2 2372.86 1611.2 2109.54C1611.2 1751.95 1610.53 1766.76 1631.4 1722.32C1656.99 1668.44 1699.08 1638.81 1757.67 1633.76C1790 1630.73 1816.93 1633.76 1848.59 1644.2Z" fill="white"/>
</g>
<defs>
<clipPath id="clip0_1_8">
<rect width="4310" height="3289.74" fill="white"/>
</clipPath>
</defs>
</svg>
